Coordinates
version=1
nRows=21
nColumns=22
inDegrees=yes

Units are S.I. units (second, meters, Newtons, ...)
If the header above contains a line with 'inDegrees', this indicates whether rotational values are in degrees (yes) or radians (no).

endheader
time	pelvis_tilt	pelvis_list	pelvis_rotation	pelvis_tx	pelvis_ty	pelvis_tz	hip_flexion_r	hip_adduction_r	hip_rotation_r	knee_angle_r	ankle_angle_r	subtalar_angle_r	hip_flexion_l	hip_adduction_l	hip_rotation_l	knee_angle_l	ankle_angle_l	subtalar_angle_l	lumbar_extension	lumbar_bending	lumbar_rotation
      3.88000000	     -4.58219892	      0.19554105	    -86.85917356	      0.01959198	      0.93970115	      0.86374795	     -1.47796564	     11.74718581	     14.84020108	    -18.36453773	     16.30807896	     -8.59576444	     28.07768713	     -8.15290480	      8.67089538	    -15.00869731	     13.31248666	      6.63875922	     -6.11984544	      1.54056233	      5.95268915
      3.89000000	     -4.56412411	      0.32227236	    -87.11570050	      0.02200175	      0.93883767	      0.87017027	     -1.54141678	     11.62508139	     15.11491600	    -18.86616601	     16.59756478	     -8.49262438	     28.13332868	     -8.12175555	      8.28107254	    -14.67970231	     13.35133878	      6.79569663	     -5.96894509	      1.53197894	      5.96664358
      3.90000000	     -4.59520752	      0.42611394	    -87.36729534	      0.02439532	      0.93800854	      0.87662033	     -1.61099617	     11.56230760	     15.39863134	    -19.39892658	     16.81838583	     -8.15545336	     28.21721271	     -8.12608806	      7.86999207	    -14.63505818	     13.41587724	      7.16248070	     -5.84655577	      1.58120093	      6.00155289
      3.91000000	     -4.61072916	      0.49398915	    -87.61041244	      0.02683311	      0.93725134	      0.88319557	     -1.73467460	     11.47967432	     15.66976609	    -19.91717084	     17.04725747	     -8.03435471	     28.25691917	     -8.09704353	      7.43857206	    -14.78230519	     13.38158954	      7.23496374	     -5.75615563	      1.61890594	      6.01628537
      3.92000000	     -4.66075709	      0.54408253	    -87.85770672	      0.02925138	      0.93655088	      0.88982579	     -1.87116165	     11.43725656	     15.96426459	    -20.44881435	     17.20196965	     -7.82996250	     28.29093878	     -8.09539106	      7.01648186	    -15.11834478	     13.25947990	      7.30325199	     -5.68442230	      1.69500020	      6.05281575
      3.93000000	     -4.73001415	      0.58086601	    -88.10338356	      0.03167524	      0.93591556	      0.89653730	     -2.01943918	     11.41411154	     16.25981811	    -20.98787688	     17.30972853	     -7.55706043	     28.29707990	     -8.10260762	      6.62600646	    -15.57435287	     13.03545162	      7.29430438	     -5.62188365	      1.79367818	      6.09633452
      3.94000000	     -4.81320127	      0.61034597	    -88.34957050	      0.03409934	      0.93536058	      0.90332708	     -2.17212713	     11.40380295	     16.55513388	    -21.53409612	     17.36142397	     -7.22304483	     28.26863678	     -8.11457317	      6.27871542	    -16.09852471	     12.67308257	      7.14694855	     -5.56138360	      1.90774625	      6.14552562
      3.95000000	     -4.90762672	      0.62703657	    -88.55782905	      0.03661903	      0.93490200	      0.91018016	     -2.32527224	     11.39478250	     16.76878615	    -22.09176365	     17.39570456	     -6.65338075	     28.20348074	     -8.10291475	      6.04166379	    -16.64909002	     12.11980177	      6.66630410	     -5.50960374	      2.04097667	      6.15509487
      3.96000000	     -4.98601990	      0.66009730	    -88.78302678	      0.03910775	      0.93455349	      0.91709777	     -2.45733539	     11.37041920	     17.02221496	    -22.65943952	     17.33096378	     -6.28579000	     28.12195085	     -8.07725269	      5.80333204	    -17.19676859	     11.43924641	      6.15100166	     -5.43207206	      2.15087867	      6.19222690
      3.97000000	     -5.04376650	      0.71155229	    -88.98998807	      0.04164372	      0.93432616	      0.92405506	     -2.54634574	     11.32303082	     17.24476857	    -23.25972738	     17.19609358	     -5.88287155	     28.02993420	     -8.01075109	      5.62588911	    -17.70441527	     10.60271960	      5.47562654	     -5.32824117	      2.23798024	      6.19902057
      3.98000000	     -5.06559916	      0.79470445	    -89.18305550	      0.04422532	      0.93421316	      0.93104483	     -2.57267809	     11.23906133	     17.43709778	    -23.90197485	     17.01280216	     -5.50565594	     27.96460657	     -7.89388793	      5.46094181	    -18.19529988	      9.67049786	      4.74527284	     -5.18212609	      2.28443810	      6.20420662
      3.99000000	     -5.05647608	      0.88862017	    -89.31887805	      0.04692911	      0.93427680	      0.93809061	     -2.56841478	     11.12209707	     17.55694364	    -24.55798835	     16.71243402	     -5.07425911	     27.90053423	     -7.70879472	      5.38464452	    -18.64506032	      8.65896817	      3.96121435	     -5.01263760	      2.30240324	      6.13681673
      4.00000000	     -4.99592215	      1.02103193	    -89.44101355	      0.04966324	      0.93444245	      0.94515440	     -2.46102323	     10.96289138	     17.61370229	    -25.31246015	     16.39417211	     -4.70082808	     27.87151458	     -7.46504003	      5.31163800	    -19.07872798	      7.64790722	      3.28650710	     -4.79259295	      2.25963641	      6.06141791
      4.01000000	     -4.92673037	      1.14768221	    -89.50663564	      0.05249342	      0.93479153	      0.95229446	     -2.33506356	     10.80058286	     17.58593176	    -26.08678630	     15.94606454	     -4.26820675	     27.84130022	     -7.18667284	      5.30088016	    -19.51437726	      6.65961465	      2.64229635	     -4.56450124	      2.21026640	      5.92726163
      4.02000000	     -4.84811118	      1.27065367	    -89.54491039	      0.05535847	      0.93530419	      0.95952547	     -2.18264718	     10.63864432	     17.50373514	    -26.89744172	     15.36919037	     -3.76748438	     27.80264173	     -6.89517752	      5.29288987	    -19.95719346	      5.75590318	      2.08269394	     -4.32418512	      2.15018930	      5.76880701
      4.03000000	     -4.75896525	      1.38642957	    -89.56519441	      0.05824408	      0.93594671	      0.96679885	     -1.96968985	     10.47778365	     17.32128145	    -27.80318384	     14.73023215	     -3.28019860	     27.73577614	     -6.59681989	      5.28789463	    -20.38223788	      4.93728139	      1.70687082	     -4.08366922	      2.07875528	      5.59604444
      4.04000000	     -4.65911027	      1.47755682	    -89.57269719	      0.06115777	      0.93672898	      0.97410677	     -1.72090885	     10.31138934	     17.04122509	    -28.78716027	     14.01311306	     -2.85108230	     27.61399147	     -6.29120083	      5.29885122	    -20.78069499	      4.20585201	      1.51783177	     -3.86529865	      1.99671218	      5.43110020
      4.05000000	     -4.57938732	      1.55400734	    -89.57980742	      0.06404584	      0.93760046	      0.98145203	     -1.42879280	     10.17235320	     16.69561312	    -29.83956384	     13.16222828	     -2.29936007	     27.46064186	     -6.02170872	      5.28103222	    -21.17001429	      3.58858171	      1.33454953	     -3.65490049	      1.93590648	      5.25512558
      4.06000000	     -4.51706845	      1.59584598	    -89.60766908	      0.06691061	      0.93856051	      0.98879795	     -1.10169373	     10.04869624	     16.28414844	    -30.97564469	     12.19675334	     -1.56637241	     27.24476344	     -5.79245854	      5.20656870	    -21.53406734	      3.12056622	      1.16692334	     -3.48472683	      1.90112261	      5.09709754
      4.07000000	     -4.45036395	      1.60592357	    -89.66053612	      0.06973185	      0.93958450	      0.99609147	     -0.72384447	      9.91377143	     15.80065732	    -32.20946816	     11.13780959	     -0.82377278	     26.94857342	     -5.57230981	      5.14269802	    -21.83044805	      2.70516115	      1.07931393	     -3.35861638	      1.86178672	      4.97201041
      4.08000000	     -4.37955432	      1.60471512	    -89.72467013	      0.07255717	      0.94057210	      1.00330038	     -0.26172868	      9.75462903	     15.21081855	    -33.55118182	     10.00328811	     -0.03304441	     26.62444313	     -5.35070463	      5.06350919	    -22.09801857	      2.37705452	      0.96346955	     -3.25590946	      1.82711512	      4.84678307
